HIERARCHY
ROOT root
{
	OFFSET	0	13.1	24.9
	CHANNELS 6  Xposition Yposition Zposition Xrotation Yrotation Zrotation
	JOINT spine_1
	{
		OFFSET	0	9.99999	0
		CHANNELS 3  Xrotation Yrotation Zrotation
		JOINT spine_2
		{
			OFFSET	0	112	-10
			CHANNELS 3  Xrotation Yrotation Zrotation
			JOINT spine_3
			{
				OFFSET	0	206.5	19.3
				CHANNELS 3  Xrotation Yrotation Zrotation
				JOINT spine_4
				{
					OFFSET	0	110.4	14.6
					CHANNELS 3  Xrotation Yrotation Zrotation
					JOINT neck_1
					{
						OFFSET	0	71.8	-50.3
						CHANNELS 3  Xrotation Yrotation Zrotation
						JOINT neck_2
						{
							OFFSET	0	86.2	-25.8
							CHANNELS 3  Xrotation Yrotation Zrotation
							JOINT head_ee
							{
								OFFSET	0	179.8	-8.7
								CHANNELS 3  Xrotation Yrotation Zrotation
								End Site
								{
									OFFSET	1	0	0
								}
							}
						}
					}
					JOINT left_clavicle
					{
						OFFSET	-43.2	22.4	-70.8
						CHANNELS 3  Xrotation Yrotation Zrotation
						JOINT left_shoulder
						{
							OFFSET	-93.9	-5.79999	48.7
							CHANNELS 3  Xrotation Yrotation Zrotation
							JOINT left_elbow
							{
								OFFSET	-291.4	-30.8	15.2
								CHANNELS 3  Xrotation Yrotation Zrotation
								JOINT left_lowarm_twist
								{
									OFFSET	-110.7	-3.89999	13.6
									CHANNELS 3  Xrotation Yrotation Zrotation
									JOINT left_hand
									{
										OFFSET	-110.7	-3.89999	13.6
										CHANNELS 3  Xrotation Yrotation Zrotation
										JOINT left_ee
										{
											OFFSET	-80.8	-5.10001	12.1
											CHANNELS 3  Xrotation Yrotation Zrotation
											End Site
											{
												OFFSET	1	0	0
											}
										}
									}
								}
							}
						}
					}
					JOINT right_clavicle
					{
						OFFSET	43.2	22.4	-70.8
						CHANNELS 3  Xrotation Yrotation Zrotation
						JOINT right_shoulder
						{
							OFFSET	93.9	-5.79999	48.7
							CHANNELS 3  Xrotation Yrotation Zrotation
							JOINT right_elbow
							{
								OFFSET	291.4	-30.8	15.2
								CHANNELS 3  Xrotation Yrotation Zrotation
								JOINT right_lowarm_twist
								{
									OFFSET	110.7	-3.89999	13.6
									CHANNELS 3  Xrotation Yrotation Zrotation
									JOINT right_hand
									{
										OFFSET	110.7	-3.89999	13.6
										CHANNELS 3  Xrotation Yrotation Zrotation
										JOINT right_ee
										{
											OFFSET	80.8	-5.10001	12.1
											CHANNELS 3  Xrotation Yrotation Zrotation
											End Site
											{
												OFFSET	1	0	0
											}
										}
									}
								}
							}
						}
					}
				}
			}
		}
	}
	JOINT left_hip
	{
		OFFSET	-82.8	-127.5	0.300001
		CHANNELS 3  Xrotation Yrotation Zrotation
		JOINT left_knee
		{
			OFFSET	-28.2	-396.7	2.2
			CHANNELS 3  Xrotation Yrotation Zrotation
			JOINT left_ankle
			{
				OFFSET	-11.7	-411.3	35.4
				CHANNELS 3  Xrotation Yrotation Zrotation
				JOINT left_toes
				{
					OFFSET	0	-60	-88.6
					CHANNELS 3  Xrotation Yrotation Zrotation
					JOINT left_foot_ee
					{
						OFFSET	-22.5	-16.5	-42.2
						CHANNELS 3  Xrotation Yrotation Zrotation
						End Site
						{
							OFFSET	1	0	0
						}
					}
				}
			}
		}
	}
	JOINT right_hip
	{
		OFFSET	82.8	-127.5	0.300001
		CHANNELS 3  Xrotation Yrotation Zrotation
		JOINT right_knee
		{
			OFFSET	28.2	-396.7	2.2
			CHANNELS 3  Xrotation Yrotation Zrotation
			JOINT right_ankle
			{
				OFFSET	11.7	-411.3	35.4
				CHANNELS 3  Xrotation Yrotation Zrotation
				JOINT right_toes
				{
					OFFSET	0	-60	-88.6
					CHANNELS 3  Xrotation Yrotation Zrotation
					JOINT right_foot_ee
					{
						OFFSET	22.5	-16.5	-42.2
						CHANNELS 3  Xrotation Yrotation Zrotation
						End Site
						{
							OFFSET	1	0	0
						}
					}
				}
			}
		}
	}
}
MOTION
Frames: 15
Frame Time: 0.02
359.838 643.005 -1604.5 -146.859 -77.3501 -143.489 1.03699 -0.170058 -2.16608 1.0396 -0.0319128 -2.17251 1.04131 0.386789 -2.13805 1.03494 0.0443529 -2.17229 -3.42035 -3.41209 0.674015 -3.39997 -6.73722 0.184111 -0.0 0.0 -0.0 13.7792 -26.1897 27.4636 -7.06325 -9.69135 57.1106 0.740269 -20.1383 0.131453 12.0107 0.265929 -1.50842 8.62528 -25.1403 50.4011 -0.0 0.0 -0.0 6.1052 -13.68 -11.6843 -19.1734 10.3924 -57.22 2.17957 47.1885 -0.952064 -65.1537 5.92976 -5.2325 1.40626 2.65462 -8.35402 0.0 0.0 0.0 7.03837 -13.8212 -1.15881 1.54473 -0.0666862 -0.227654 36.635 -25.009 -5.27298 40.1534 -0.0 -0.0 -0.0 0.0 -0.0 29.8445 -26.7807 6.2244 -43.937 0.736043 -6.54043 41.9495 -20.8799 5.22711 -36.2066 0.0 0.0 0.0 0.0 0.0 
365.044 642.943 -1600.92 -147.358 -76.2959 -143.076 1.09679 -0.282075 -2.16349 1.09938 -0.143868 -2.17704 1.1054 0.275301 -2.16436 1.09887 -0.0698898 -2.18067 -3.07766 -3.37164 0.195897 -3.06077 -6.28209 -0.288573 -0.0 0.0 -0.0 13.7814 -26.4333 27.4383 -6.08376 -9.65677 55.9087 0.852265 -22.8886 0.172536 10.3197 0.247713 -1.29319 9.08196 -25.1427 54.8512 -0.0 0.0 -0.0 5.77702 -15.7576 -11.0692 -22.6154 15.2285 -54.341 2.15029 46.8021 -0.930648 -59.7686 5.25398 -5.09392 1.42252 3.7705 -8.00289 0.0 0.0 0.0 5.17036 -13.7393 -0.940793 1.95431 -0.0853969 -0.287712 38.1592 -27.1465 -5.54805 39.5039 -0.0 -0.0 -0.0 0.0 -0.0 29.0314 -21.7846 3.08898 -37.5004 0.31545 -5.64516 42.9166 -24.0774 5.40768 -37.0579 0.0 0.0 0.0 0.0 0.0 
379.121 642.036 -1598.05 -150.388 -75.4051 -146.102 1.04201 -0.23924 -2.10462 1.04447 -0.104863 -2.11557 1.04887 0.303911 -2.09626 1.04274 -0.0308907 -2.11794 -2.92346 -3.21886 -0.286159 -2.91052 -5.6231 -0.761142 -0.0 0.0 -0.0 13.4084 -26.1018 26.611 -6.09459 -9.97539 55.5243 1.08998 -28.3658 0.27547 9.20298 0.232205 -1.1514 9.29841 -24.5115 57.9458 -0.0 0.0 -0.0 5.85723 -16.5106 -11.1714 -23.1914 15.4823 -53.6396 2.03713 45.2552 -0.849202 -58.2738 5.06888 -5.0442 1.38195 3.80473 -7.71304 0.0 0.0 0.0 4.84362 -13.7313 -1.32212 3.03487 -0.136821 -0.44552 37.4465 -28.4194 -5.55551 38.3575 -0.0 -0.0 -0.0 0.0 -0.0 28.4887 -20.3658 1.1417 -29.2557 -0.0718546 -4.44059 42.0846 -26.2604 5.40845 -38.2075 0.0 0.0 0.0 0.0 0.0 
388.15 646.521 -1592.23 -153.369 -73.8952 -149.075 1.04905 -0.254465 -2.08637 1.05147 -0.121218 -2.09833 1.05644 0.284259 -2.08253 1.05039 -0.0481294 -2.10128 -2.94167 -3.2199 -0.292016 -2.9288 -5.62115 -0.768129 -0.0 0.0 -0.0 13.0867 -26.5381 25.8129 -5.89817 -10.0839 55.0903 1.15887 -29.8578 0.308987 9.17119 0.231723 -1.14737 9.32142 -24.4744 58.2484 -0.0 0.0 -0.0 5.82934 -17.5861 -11.0837 -23.1315 15.2919 -53.7008 1.90044 43.2672 -0.753785 -58.4154 5.08637 -5.04912 1.35488 3.38661 -7.70274 0.0 0.0 0.0 4.39188 -13.7065 -1.87901 -0.191406 0.00783408 0.0283283 37.2293 -28.4039 -5.53222 38.8318 -0.0 -0.0 -0.0 0.0 -0.0 28.9888 -20.4325 1.09327 -28.4781 -0.0993437 -4.32442 42.3497 -26.0625 5.42563 -38.1743 0.0 0.0 0.0 0.0 0.0 
396.588 643.893 -1590.54 -152.944 -73.3722 -148.459 1.22356 -0.587285 -2.15316 1.22603 -0.449118 -2.18615 1.24384 -0.0281894 -2.2316 1.2371 -0.380189 -2.19917 -1.98027 -3.28574 -0.697639 -1.9659 -5.37963 -1.16505 -0.0 0.0 -0.0 13.8718 -26.7242 27.6122 -5.8472 -7.46506 52.338 1.30125 -32.8044 0.383048 6.19023 0.176609 -0.770611 8.94845 -23.7041 55.2395 -0.0 0.0 -0.0 5.71167 -16.4316 -10.9404 -24.1613 15.8152 -55.7251 1.57546 37.967 -0.541998 -58.2743 5.06895 -5.04422 1.45587 7.5404 -6.64288 0.0 0.0 0.0 4.13212 -12.6842 -1.89592 -0.458868 0.0186223 0.0679557 38.5427 -26.266 -5.53341 40.3466 -0.0 -0.0 -0.0 0.0 -0.0 31.9718 -14.231 2.14183 -33.2826 0.0955984 -5.03574 37.8748 -26.7385 5.01556 -40.1311 0.0 0.0 0.0 0.0 0.0 
410.965 642.749 -1590.12 -154.214 -73.12 -149.95 1.29512 -0.604844 -2.26333 1.29785 -0.459636 -2.29721 1.31696 -0.0205401 -2.34262 1.30951 -0.390156 -2.31001 -3.06356 -3.42936 -0.0915667 -3.04814 -6.16285 -0.595183 -0.0 0.0 -0.0 13.7631 -27.0249 27.3199 -6.507 -7.26594 51.656 1.49991 -36.6103 0.496223 7.66886 0.206398 -0.957139 9.03488 -25.0335 54.5076 -0.0 0.0 -0.0 5.60573 -13.0837 -10.8585 -23.0085 13.6179 -55.7979 1.37696 34.2963 -0.424895 -57.3814 4.95901 -5.01222 2.14457 9.5697 -10.4677 0.0 0.0 0.0 3.94379 -11.2548 -1.41363 -0.413098 0.0167896 0.061171 35.0115 -24.5036 -5.07797 39.6741 -0.0 -0.0 -0.0 0.0 -0.0 32.1269 -14.9737 2.45244 -27.4597 -0.132952 -4.17174 32.5632 -27.1066 4.45693 -39.3616 0.0 0.0 0.0 0.0 0.0 
424.734 639.037 -1590.68 -156.516 -72.073 -152.705 1.47054 -0.636436 -2.32783 1.47343 -0.487064 -2.36358 1.4941 -0.0425148 -2.41284 1.48622 -0.422936 -2.37589 -3.70465 -3.48995 1.17875 -3.67866 -7.27535 0.678163 -0.0 0.0 -0.0 13.7761 -26.8952 27.3672 -6.01152 -7.43693 52.1492 1.756 -41.0153 0.656852 8.55628 0.221961 -1.06943 8.56419 -23.7139 51.3802 -0.0 0.0 -0.0 5.19049 -11.7848 -10.1694 -22.7527 12.9995 -56.4377 1.39941 34.7288 -0.437614 -57.6919 4.99718 -5.02354 3.12327 12.4563 -15.9327 0.0 0.0 0.0 3.75944 -9.23566 -0.710094 -1.02075 0.0406822 0.151363 30.2469 -22.3512 -4.4487 36.9956 -0.0 -0.0 -0.0 0.0 -0.0 31.79 -16.1062 2.62457 -19.26 -0.303709 -2.92611 23.2605 -26.584 3.32132 -37.1723 0.0 0.0 0.0 0.0 0.0 
433.638 642.587 -1589.72 -156.455 -71.1585 -153.323 1.43522 -0.659324 -2.40532 1.43829 -0.504979 -2.44237 1.46047 -0.044131 -2.49361 1.45206 -0.437276 -2.45539 -6.79548 -3.29072 3.76574 -6.74431 -8.8357 3.12153 -0.0 0.0 -0.0 13.6995 -26.3028 27.2635 -5.75381 -7.98911 51.0738 1.7841 -41.4661 0.675377 10.6813 0.252142 -1.33917 8.37819 -25.6475 47.6061 -0.0 0.0 -0.0 5.64262 -11.5352 -10.9504 -23.703 12.5104 -55.142 1.34913 33.7538 -0.409318 -57.446 4.96695 -5.01459 4.16001 17.1583 -20.8847 0.0 0.0 0.0 3.76621 -9.28736 0.0349868 -1.59383 0.0623369 0.236646 28.5482 -20.0079 -4.15891 32.6612 -0.0 -0.0 -0.0 0.0 -0.0 31.5039 -17.3716 2.47324 -10.187 -0.283543 -1.53562 13.2682 -23.4538 1.93659 -33.8314 0.0 0.0 0.0 0.0 0.0 
454.996 637.81 -1581.25 -159.16 -71.1543 -155.711 1.4253 -0.688285 -2.42553 1.42841 -0.532595 -2.46438 1.45201 -0.0668491 -2.52036 1.44345 -0.46393 -2.47822 -7.44521 -2.34129 6.85654 -7.30027 -9.26579 6.35816 -0.0 0.0 -0.0 13.2652 -26.4862 26.2321 -5.72923 -8.72751 50.7972 1.78434 -41.4699 0.675536 12.1769 0.267376 -1.52959 8.22856 -26.1209 45.8135 -0.0 0.0 -0.0 6.58329 -11.9697 -12.5658 -24.6987 11.7605 -53.918 0.950252 25.2072 -0.212474 -58.5911 5.10807 -5.05516 5.01714 24.734 -22.541 0.0 0.0 0.0 2.57395 -11.5349 0.113119 -11.9349 0.304553 1.80297 36.4146 -18.2012 -4.94425 29.384 -0.0 -0.0 -0.0 0.0 -0.0 31.66 -17.2381 2.2621 -8.20905 -0.24994 -1.23397 14.2647 -19.3081 2.03829 -33.5266 0.0 0.0 0.0 0.0 0.0 
464.602 638.775 -1574.42 -162.258 -68.5244 -158.216 1.25737 -0.63601 -2.53702 1.26082 -0.473339 -2.57232 1.28294 0.0191668 -2.61541 1.27361 -0.393988 -2.58565 -7.40014 -0.25503 1.23324 -7.39554 -1.35813 1.17553 -0.0 0.0 -0.0 13.3397 -26.2999 26.4276 -7.97887 -7.72703 48.6894 2.18715 -47.2875 0.957626 14.2698 0.28034 -1.79659 8.08638 -26.0718 44.6455 -0.0 0.0 -0.0 6.68348 -9.41504 -12.8355 -25.7322 9.12039 -55.4712 0.926683 24.6572 -0.202538 -61.5703 5.47866 -5.14738 4.79412 22.6716 -22.2461 0.0 0.0 0.0 2.83099 -15.0926 -0.367111 -10.7796 0.29158 1.62619 39.3362 -11.2575 -4.99929 25.2303 -0.0 -0.0 -0.0 0.0 -0.0 31.3514 -16.5621 -0.0565283 -7.16177 -0.227938 -1.07477 14.5653 -11.0526 2.03929 -33.4521 0.0 0.0 0.0 0.0 0.0 
473.385 642.267 -1571.95 -160.873 -67.0509 -156.907 1.51145 -0.514149 -2.49432 1.51484 -0.354439 -2.52196 1.53094 0.115562 -2.5441 1.52202 -0.287551 -2.53045 -5.84192 0.431887 1.58135 -5.83471 -0.372136 1.67817 -0.0 0.0 -0.0 12.9058 -26.6271 25.3846 -8.38447 -8.06289 48.2471 2.36617 -49.5236 1.09153 16.0674 0.283684 -2.02616 8.22784 -25.8673 46.0611 -0.0 0.0 -0.0 6.69356 -4.82312 -12.9619 -27.5263 5.31156 -57.3427 1.00076 26.3692 -0.234448 -61.3464 5.45066 -5.14112 5.10158 23.6859 -23.7795 0.0 0.0 0.0 2.15153 -16.0881 -0.750517 -8.92458 0.263298 1.34296 39.299 -8.63049 -4.93552 21.2997 -0.0 -0.0 -0.0 0.0 -0.0 32.0132 -16.2595 -1.6338 0.533465 0.0223342 0.0788169 12.9395 -3.98734 1.82354 -37.6279 0.0 0.0 0.0 0.0 0.0 
489.088 629.176 -1561.34 -159.22 -66.508 -155.853 1.66081 -0.515142 -2.59695 1.6645 -0.348905 -2.62444 1.68084 0.13295 -2.64418 1.67119 -0.286169 -2.63202 -5.79409 0.551518 2.41668 -5.77708 -0.771222 2.54546 -0.0 0.0 -0.0 13.0337 -25.1557 25.8518 -7.63258 -8.8965 47.3304 2.45953 -50.6143 1.16313 16.6845 0.283171 -2.10497 8.23931 -25.7816 46.2468 -0.0 0.0 -0.0 6.21767 -3.89776 -12.0675 -29.8917 5.19119 -59.2222 1.02795 26.9853 -0.246655 -61.118 5.42211 -5.13462 5.20835 26.7034 -22.6097 0.0 0.0 0.0 1.53651 -17.6787 0.0635279 -8.96566 0.264024 1.34922 39.6657 -8.48818 -4.96468 18.9092 -0.0 -0.0 -0.0 0.0 -0.0 32.4032 -15.5453 -2.57423 3.10936 0.140476 0.456363 13.156 0.970558 1.86986 -38.9857 0.0 0.0 0.0 0.0 0.0 
495.887 627.74 -1552.56 -158.472 -66.6021 -155.008 1.85671 -0.503944 -2.7651 1.86091 -0.327042 -2.79154 1.87697 0.1752 -2.80515 1.86609 -0.269842 -2.79764 -5.39436 0.739846 3.80646 -5.35157 -1.47837 3.99695 -0.0 0.0 -0.0 12.9798 -25.1156 25.7315 -7.2226 -9.78182 46.4845 2.31492 -48.9035 1.05273 17.5557 0.281002 -2.21623 8.35611 -26.0182 47.0285 -0.0 0.0 -0.0 6.47916 -3.03591 -12.5691 -30.9218 5.1166 -59.3541 0.950688 25.2174 -0.21266 -60.7133 5.37159 -5.12283 5.12127 27.3206 -21.6214 0.0 0.0 0.0 0.651543 -19.3093 -0.477309 -8.89091 0.2627 1.33783 39.3152 -9.04782 -4.94578 17.6391 -0.0 -0.0 -0.0 0.0 -0.0 34.1261 -14.7372 -2.91064 2.98357 0.134312 0.438049 13.1158 5.77162 1.89516 -39.6058 0.0 0.0 0.0 0.0 0.0 
507.798 626.178 -1547.31 -156.351 -66.3749 -152.977 2.09771 -0.392054 -2.575 2.10137 -0.227462 -2.59471 2.11149 0.227598 -2.5947 2.10214 -0.184901 -2.59809 -6.9529 0.931867 5.81197 -6.85434 -2.47713 6.00511 -0.0 0.0 -0.0 12.8205 -25.2355 25.35 -6.51409 -11.1893 45.2756 2.31118 -48.8576 1.04991 18.0906 0.278832 -2.28451 8.45667 -25.6057 48.3526 -0.0 0.0 -0.0 6.81388 -2.6554 -13.2164 -32.3841 4.99871 -59.545 0.843832 22.6852 -0.16927 -60.7008 5.37004 -5.12246 4.79883 27.465 -19.3643 0.0 0.0 0.0 -0.500532 -21.5844 -1.45208 -8.61458 0.257679 1.29572 39.0537 -9.02607 -4.92221 16.8191 -0.0 -0.0 -0.0 0.0 -0.0 35.3139 -13.6186 -3.01714 2.57083 0.114372 0.377866 13.1185 10.5546 1.94087 -40.1496 0.0 0.0 0.0 0.0 0.0 
523.249 620.195 -1538.64 -154.792 -66.6108 -150.828 2.40604 -0.278321 -2.639 2.4099 -0.109891 -2.65135 2.4144 0.339444 -2.63184 2.40474 -0.0803145 -2.65241 -7.64777 0.101885 4.87431 -7.57805 -3.28619 4.87041 -0.0 0.0 -0.0 12.9257 -25.1038 25.6076 -7.11775 -12.7061 45.2618 2.28712 -48.5605 1.03184 18.3134 0.27774 -2.31295 8.58368 -25.558 49.5596 -0.0 0.0 -0.0 6.84424 -2.47815 -13.2765 -33.4865 4.8015 -60.3502 0.77609 21.0293 -0.144047 -60.859 5.38977 -5.12712 4.94377 28.0379 -19.973 0.0 0.0 0.0 -1.59134 -21.3581 -2.20528 -8.93512 0.263485 1.34457 39.0599 -10.4602 -4.9552 16.3804 -0.0 -0.0 -0.0 0.0 -0.0 36.4424 -12.5681 -3.38512 1.89505 0.0826631 0.279031 13.4422 14.1399 2.03168 -39.9387 0.0 0.0 0.0 0.0 0.0 
